<svg xmlns="http://www.w3.org/2000/svg" width="1400" height="100"><path d="M400 20c166.69 4.365 445.383 65.495 600 60 154.617-5.496 400-30 400-30V0H0v50s233.31-34.366 400-30z" fill="#fff"/><path d="M368.037 17.617c10.866-.012 21.545.11 31.963.383 67.35 1.763 153.03 14.733 241.375 26.892-88.11-8.309-152.742-19.438-210.972-22.576-58.23-3.139-159.137 1.3-193.3 3.552C202.938 28.121 32.412 44.607 0 50V35c29.286-3.929 205.056-17.205 368.037-17.383z" fill="#ace1ee"/><path d="M368.668 17.238c10.866-.012 21.545.11 31.963.383 11.62.304 23.17 1.272 35.797 2.086-12.482.132-54.739-2.215-114.863-.402-60.125 1.814-101.808 1.299-168.917 4.666 66.408-6.47 145.242-6.655 216.02-6.733z" fill="#acd4ee"/></svg>