<svg xmlns="http://www.w3.org/2000/svg" width="1400" height="100"><path d="M1000 20c-166.69 4.365-445.383 65.495-600 60C245.383 74.504 0 50 0 50v50h1400V50s-233.31-34.366-400-30z" fill="#fff"/><path d="M1031.963 19.617A1174.85 1174.85 0 001000 20c-166.69 4.365-445.383 65.495-600 60-19.281-.686-39.976-1.668-61.428-2.86 20.442 3.897 47.726 7.619 71.76 8.395 15.24.41 105.81-.72 213.559-14.99C731.64 56.276 782.263 54.821 858.523 44.19c76.26-10.632 138.852-8.303 160.303-8.565C1040.277 35.36 1309.086 51.715 1400 80V50c-19.464-2.679-205.056-30.205-368.037-30.383z" fill="#f9e8d7"/><path d="M1031.963 19.617A1174.85 1174.85 0 001000 20c-67.35 1.763-153.03 12.814-241.375 24.972 88.11-8.309 153.121-14.74 211.35-17.879 58.23-3.138 157.623 3.068 191.786 5.321C1195.925 34.667 1362.587 55.321 1400 65V50c-26.786-3.572-205.056-30.205-368.037-30.383z" fill="#f49b5b"/><path d="M1031.963 19.617A1174.85 1174.85 0 001000 20c-11.62.304-23.8.893-36.428 1.707 12.482.132 54.865 1.068 114.99 2.881 60.124 1.814 102.186 3.236 169.295 7.318-66.408-6.47-145.116-12.212-215.894-12.29z" fill="#fa7628"/></svg>