<svg xmlns="http://www.w3.org/2000/svg" height="100" width="1400"><path d="M1000 20c-167.34 2.075-432.66 57.924-600 60C232.66 82.075 0 50 0 50v50h1400V50s-232.66-32.076-400-30z" fill="#fff"/><path d="M1015.871 19.902c-5.348 0-10.642.033-15.871.098-167.34 2.076-432.66 57.924-600 60C232.66 82.076 0 50 0 50s204.285 30.162 367.69 32H400c167.34-2.076 432.66-51.924 600-54 167.34-2.076 400 34 400 34V50s-218.345-30.104-384.129-30.098z" fill="#f9e8d7"/><path d="M1015.871 19.902c-5.348 0-10.642.033-15.871.098-109.106 1.353-259.853 25.561-397.95 42.824C740.148 47.336 890.895 25.354 1000 24c167.34-2.076 400 32 400 32v-6s-218.345-30.104-384.129-30.098z" fill="#f49b5b"/></svg>